<mxfile host="app.diagrams.net" modified="2024-03-09T05:20:52.874Z" agent="Mozilla/5.0 (Windows NT 10.0; Win64; x64) AppleWebKit/537.36 (KHTML, like Gecko) Chrome/122.0.0.0 Safari/537.36 Edg/122.0.0.0" etag="yCtDutJTcz-Sera7kSGF" version="24.0.3" type="device">
  <diagram name="Página-1" id="LXfbTa-Vh-eqUnoyN8Iz">
    <mxGraphModel dx="1911" dy="875" grid="1" gridSize="10" guides="1" tooltips="1" connect="1" arrows="1" fold="1" page="1" pageScale="1" pageWidth="827" pageHeight="1169" math="0" shadow="0">
      <root>
        <mxCell id="0" />
        <mxCell id="1" parent="0" />
        <mxCell id="6cR0kk21elIW7PO104qL-3" value="" style="edgeStyle=orthogonalEdgeStyle;rounded=0;orthogonalLoop=1;jettySize=auto;html=1;" edge="1" parent="1" source="6cR0kk21elIW7PO104qL-1" target="6cR0kk21elIW7PO104qL-2">
          <mxGeometry relative="1" as="geometry" />
        </mxCell>
        <mxCell id="6cR0kk21elIW7PO104qL-1" value="INICIO" style="ellipse;whiteSpace=wrap;html=1;fillColor=#99CCFF;" vertex="1" parent="1">
          <mxGeometry x="360" y="10" width="120" height="80" as="geometry" />
        </mxCell>
        <mxCell id="6cR0kk21elIW7PO104qL-5" value="" style="edgeStyle=orthogonalEdgeStyle;rounded=0;orthogonalLoop=1;jettySize=auto;html=1;" edge="1" parent="1" source="6cR0kk21elIW7PO104qL-2" target="6cR0kk21elIW7PO104qL-4">
          <mxGeometry relative="1" as="geometry" />
        </mxCell>
        <mxCell id="6cR0kk21elIW7PO104qL-9" value="" style="edgeStyle=orthogonalEdgeStyle;rounded=0;orthogonalLoop=1;jettySize=auto;html=1;exitX=1;exitY=0.5;exitDx=0;exitDy=0;" edge="1" parent="1" source="6cR0kk21elIW7PO104qL-2" target="6cR0kk21elIW7PO104qL-8">
          <mxGeometry relative="1" as="geometry">
            <mxPoint x="707.25" y="230" as="sourcePoint" />
          </mxGeometry>
        </mxCell>
        <mxCell id="6cR0kk21elIW7PO104qL-2" value="¿El paciente es&amp;nbsp;&lt;b style=&quot;color: rgb(189, 193, 198); font-family: &amp;quot;Google Sans&amp;quot;, arial, sans-serif; font-size: 14px; text-align: left; background-color: rgb(32, 33, 36);&quot;&gt;&amp;gt;&lt;/b&gt;&lt;span style=&quot;color: rgb(189, 193, 198); font-family: &amp;quot;Google Sans&amp;quot;, arial, sans-serif; font-size: 14px; text-align: left; background-color: rgb(32, 33, 36);&quot;&gt;&amp;nbsp;= 20 o&amp;nbsp;&lt;/span&gt;&lt;b style=&quot;color: rgb(189, 193, 198); font-family: &amp;quot;Google Sans&amp;quot;, arial, sans-serif; font-size: 14px; text-align: left; background-color: rgb(32, 33, 36);&quot;&gt;&amp;lt; 25&lt;/b&gt;" style="rhombus;whiteSpace=wrap;html=1;fillColor=#474D0A;" vertex="1" parent="1">
          <mxGeometry x="360" y="170" width="120" height="120" as="geometry" />
        </mxCell>
        <mxCell id="6cR0kk21elIW7PO104qL-7" value="" style="edgeStyle=orthogonalEdgeStyle;rounded=0;orthogonalLoop=1;jettySize=auto;html=1;" edge="1" parent="1" source="6cR0kk21elIW7PO104qL-4" target="6cR0kk21elIW7PO104qL-6">
          <mxGeometry relative="1" as="geometry" />
        </mxCell>
        <mxCell id="6cR0kk21elIW7PO104qL-4" value="SI" style="shape=parallelogram;perimeter=parallelogramPerimeter;whiteSpace=wrap;html=1;fixedSize=1;fillColor=#80FF00;" vertex="1" parent="1">
          <mxGeometry x="80" y="200" width="120" height="60" as="geometry" />
        </mxCell>
        <mxCell id="6cR0kk21elIW7PO104qL-19" value="" style="edgeStyle=orthogonalEdgeStyle;rounded=0;orthogonalLoop=1;jettySize=auto;html=1;" edge="1" parent="1" source="6cR0kk21elIW7PO104qL-6" target="6cR0kk21elIW7PO104qL-18">
          <mxGeometry relative="1" as="geometry" />
        </mxCell>
        <mxCell id="6cR0kk21elIW7PO104qL-6" value="Cobrar un 4% más sobre el costo del servicio" style="shape=parallelogram;perimeter=parallelogramPerimeter;whiteSpace=wrap;html=1;fixedSize=1;fillColor=#80FF00;" vertex="1" parent="1">
          <mxGeometry x="50" y="350" width="180" height="60" as="geometry" />
        </mxCell>
        <mxCell id="6cR0kk21elIW7PO104qL-11" value="" style="edgeStyle=orthogonalEdgeStyle;rounded=0;orthogonalLoop=1;jettySize=auto;html=1;" edge="1" parent="1" source="6cR0kk21elIW7PO104qL-8" target="6cR0kk21elIW7PO104qL-10">
          <mxGeometry relative="1" as="geometry" />
        </mxCell>
        <mxCell id="6cR0kk21elIW7PO104qL-8" value="NO" style="shape=parallelogram;perimeter=parallelogramPerimeter;whiteSpace=wrap;html=1;fixedSize=1;fillColor=#80FF00;" vertex="1" parent="1">
          <mxGeometry x="787.25" y="200" width="120" height="60" as="geometry" />
        </mxCell>
        <mxCell id="6cR0kk21elIW7PO104qL-13" value="" style="edgeStyle=orthogonalEdgeStyle;rounded=0;orthogonalLoop=1;jettySize=auto;html=1;" edge="1" parent="1" source="6cR0kk21elIW7PO104qL-10" target="6cR0kk21elIW7PO104qL-12">
          <mxGeometry relative="1" as="geometry" />
        </mxCell>
        <mxCell id="6cR0kk21elIW7PO104qL-10" value="¿El paciente es&amp;nbsp;&lt;b style=&quot;color: rgb(189, 193, 198); font-family: &amp;quot;Google Sans&amp;quot;, arial, sans-serif; font-size: 14px; text-align: left; background-color: rgb(32, 33, 36);&quot;&gt;&amp;gt;=65&amp;nbsp;&lt;/b&gt;&amp;nbsp;años?" style="rhombus;whiteSpace=wrap;html=1;fillColor=#474D0A;" vertex="1" parent="1">
          <mxGeometry x="827" y="380" width="120" height="110" as="geometry" />
        </mxCell>
        <mxCell id="6cR0kk21elIW7PO104qL-15" value="" style="edgeStyle=orthogonalEdgeStyle;rounded=0;orthogonalLoop=1;jettySize=auto;html=1;" edge="1" parent="1" source="6cR0kk21elIW7PO104qL-12" target="6cR0kk21elIW7PO104qL-14">
          <mxGeometry relative="1" as="geometry" />
        </mxCell>
        <mxCell id="6cR0kk21elIW7PO104qL-12" value="SI" style="shape=parallelogram;perimeter=parallelogramPerimeter;whiteSpace=wrap;html=1;fixedSize=1;fillColor=#80FF00;" vertex="1" parent="1">
          <mxGeometry x="520" y="390" width="120" height="60" as="geometry" />
        </mxCell>
        <mxCell id="6cR0kk21elIW7PO104qL-21" value="" style="edgeStyle=orthogonalEdgeStyle;rounded=0;orthogonalLoop=1;jettySize=auto;html=1;entryX=1;entryY=0.5;entryDx=0;entryDy=0;" edge="1" parent="1" source="6cR0kk21elIW7PO104qL-14" target="6cR0kk21elIW7PO104qL-18">
          <mxGeometry relative="1" as="geometry">
            <mxPoint x="365.5000000000002" y="739.9999999999998" as="targetPoint" />
          </mxGeometry>
        </mxCell>
        <mxCell id="6cR0kk21elIW7PO104qL-14" value="Aplicar un descuento del 5% del costo total" style="shape=parallelogram;perimeter=parallelogramPerimeter;whiteSpace=wrap;html=1;fixedSize=1;fillColor=#80FF00;" vertex="1" parent="1">
          <mxGeometry x="482.75" y="710" width="194.5" height="60" as="geometry" />
        </mxCell>
        <mxCell id="6cR0kk21elIW7PO104qL-23" value="" style="edgeStyle=orthogonalEdgeStyle;rounded=0;orthogonalLoop=1;jettySize=auto;html=1;" edge="1" parent="1" source="6cR0kk21elIW7PO104qL-18" target="6cR0kk21elIW7PO104qL-22">
          <mxGeometry relative="1" as="geometry" />
        </mxCell>
        <mxCell id="6cR0kk21elIW7PO104qL-18" value="Mostrar en pantalla: El servicio de parto no tiene descuento ni incremento de precio" style="rhombus;whiteSpace=wrap;html=1;fillColor=#474D0A;" vertex="1" parent="1">
          <mxGeometry x="21.25" y="600" width="237.5" height="245" as="geometry" />
        </mxCell>
        <mxCell id="6cR0kk21elIW7PO104qL-22" value="FIN" style="ellipse;whiteSpace=wrap;html=1;fillColor=#99CCFF;" vertex="1" parent="1">
          <mxGeometry x="100" y="1007.5" width="80" height="80" as="geometry" />
        </mxCell>
      </root>
    </mxGraphModel>
  </diagram>
</mxfile>
